<svg width="100%" height="100%" viewBox="0 0 16 16" fill="none" xmlns="http://www.w3.org/2000/svg"><path fill-rule="evenodd" clip-rule="evenodd" d="M9.368.25h1.264c.743 0 1.346 0 1.835.04.505.041.954.129 1.372.341a3.5 3.5 0 0 1 1.53 1.53c.212.418.3.867.341 1.372.04.489.04 1.092.04 1.835v1.264c0 .743 0 1.346-.04 1.835-.041.505-.129.954-.342 1.372a3.5 3.5 0 0 1-1.529 1.53c-.418.212-.867.3-1.372.341-.218.018-.458.028-.724.033-.005.266-.015.506-.033.724-.041.505-.129.954-.342 1.372a3.5 3.5 0 0 1-1.529 1.53c-.418.212-.867.3-1.372.341-.489.04-1.092.04-1.835.04H5.368c-.743 0-1.346 0-1.835-.04-.505-.041-.954-.129-1.372-.342a3.5 3.5 0 0 1-1.53-1.529c-.212-.418-.3-.867-.341-1.372-.04-.489-.04-1.092-.04-1.835V9.368c0-.743 0-1.346.04-1.835.041-.505.129-.954.341-1.372a3.5 3.5 0 0 1 1.53-1.53c.418-.212.867-.3 1.372-.341.218-.018.458-.028.724-.033.005-.266.015-.506.033-.724.041-.505.129-.954.341-1.372a3.5 3.5 0 0 1 1.53-1.53c.418-.212.867-.3 1.372-.341C8.022.25 8.625.25 9.368.25zm-3.61 4h.874c.743 0 1.346 0 1.835.04.505.041.954.129 1.372.341a3.5 3.5 0 0 1 1.53 1.53c.212.418.3.867.341 1.372.04.489.04 1.092.04 1.835v.875c.225-.005.42-.014.595-.028.412-.034.642-.096.813-.183a2 2 0 0 0 .874-.874c.087-.17.15-.4.183-.813.034-.42.035-.963.035-1.745V5.4c0-.782 0-1.324-.035-1.745-.034-.412-.096-.642-.183-.813a2 2 0 0 0-.874-.874c-.17-.087-.4-.15-.813-.183-.42-.034-.963-.035-1.745-.035H9.4c-.782 0-1.324 0-1.745.035-.412.034-.642.096-.813.183a2 2 0 0 0-.874.874c-.087.17-.15.4-.183.813-.014.175-.023.37-.028.595zM2.841 5.968c.17-.087.4-.15.813-.183.42-.034.963-.035 1.745-.035h1.2c.782 0 1.324 0 1.745.035.412.034.642.096.813.183a2 2 0 0 1 .874.874c.087.17.15.4.183.813.034.42.035.963.035 1.745v1.2c0 .782 0 1.324-.035 1.745-.034.412-.096.642-.183.813a2 2 0 0 1-.874.874c-.17.087-.4.15-.813.183-.42.034-.963.035-1.745.035H5.4c-.782 0-1.324 0-1.745-.035-.412-.034-.642-.096-.813-.183a2 2 0 0 1-.874-.874c-.087-.17-.15-.4-.183-.813-.034-.42-.035-.963-.035-1.745V9.4c0-.782 0-1.324.035-1.745.034-.412.096-.642.183-.813a2 2 0 0 1 .874-.874z" fill="currentColor"></path></svg>
